<svg width="16" height="16" viewBox="0 0 16 16" fill="none" xmlns="http://www.w3.org/2000/svg">
<path d="M9.40759 6.34875C9.56932 6.33354 9.71717 6.44565 9.76013 6.59583L9.77966 6.66614L9.7738 6.66907C9.77413 6.67066 9.77444 6.67229 9.77478 6.67395C9.78301 6.71475 9.79438 6.7727 9.80603 6.84387C9.82932 6.98614 9.85454 7.18387 9.86169 7.41711C9.87595 7.88305 9.819 8.49615 9.52966 9.09875L9.52869 9.10071C9.20071 9.75576 8.56353 10.493 8.32556 10.7531C8.33342 10.8848 8.34399 10.9927 8.35291 11.0695C8.35776 11.1112 8.3615 11.1442 8.36462 11.1661C8.36619 11.1771 8.36769 11.1861 8.36853 11.1915C8.36869 11.1926 8.3684 11.1936 8.36853 11.1945C8.41373 11.384 8.27386 11.5628 8.09216 11.5861L8.07947 11.588V11.587H8.03162C7.88398 11.587 7.72651 11.4853 7.69568 11.3224C7.69228 11.3125 7.68844 11.3036 7.68689 11.297C7.68384 11.2839 7.68101 11.2675 7.6781 11.2501C7.67227 11.2153 7.66659 11.1692 7.66052 11.1144C7.6487 11.0076 7.63648 10.8637 7.6283 10.6935C7.62185 10.6778 7.61171 10.6554 7.59607 10.6241C7.58118 10.5944 7.56406 10.5586 7.54822 10.5216C7.29649 10.2766 6.91339 9.86362 6.61267 9.35852C6.30719 8.84525 6.07948 8.22515 6.17224 7.58508C6.17827 7.44826 6.26679 7.34613 6.37927 7.30676L6.43103 7.29309C6.97654 7.15866 7.38945 7.30935 7.65369 7.47766C7.99815 6.9844 8.40521 6.70292 8.7406 6.54504C8.91724 6.46192 9.07371 6.41229 9.18982 6.38391C9.28679 6.36023 9.36001 6.35215 9.39392 6.34973V6.34875C9.3965 6.3484 9.39917 6.34905 9.40173 6.34875C9.40395 6.34866 9.40592 6.34778 9.40759 6.34778V6.34875ZM9.13806 7.12317C8.97847 7.18263 8.77781 7.28552 8.57263 7.45813C8.6856 7.39547 8.82684 7.40723 8.93787 7.48645C9.09939 7.60195 9.11772 7.81015 9.00916 7.96204V7.96301C8.62969 8.48184 8.44531 9.07563 8.35583 9.61047C8.56119 9.34461 8.76629 9.04444 8.90271 8.77161C9.20841 8.1597 9.19924 7.49444 9.13806 7.12317ZM8.47009 7.54797C8.30761 7.70395 8.14694 7.90752 8.00818 8.17395C7.91385 8.37116 7.86152 8.57608 7.84119 8.7804C7.97532 8.36687 8.1723 7.94514 8.46228 7.55774C8.46472 7.55433 8.46757 7.55126 8.47009 7.54797ZM6.82263 7.93567C6.82597 8.03689 6.83698 8.13841 6.85876 8.23938C6.88064 8.17824 6.92093 8.12178 6.98181 8.07825L6.9906 8.07239C7.06095 8.03226 7.14356 8.01578 7.22302 8.02551C7.12151 7.97452 6.98877 7.93567 6.82263 7.93567Z" fill="#213F7D" stroke="#213F7D" stroke-width="0.2"/>
<path d="M4.80029 5.42035C4.98355 5.42048 5.14014 5.57692 5.14014 5.76019V11.8403C5.13996 12.0234 4.98344 12.18 4.80029 12.1801C4.61704 12.1801 4.46063 12.0235 4.46045 11.8403V5.76019C4.46045 5.57684 4.61694 5.42035 4.80029 5.42035Z" fill="#213F7D" stroke="#213F7D" stroke-width="0.2"/>
<path d="M3.20032 5.42035C3.38357 5.42048 3.54016 5.57692 3.54016 5.76019V11.8403C3.53998 12.0234 3.38347 12.18 3.20032 12.1801C3.01707 12.1801 2.86065 12.0235 2.86047 11.8403V5.76019C2.86047 5.57684 3.01696 5.42035 3.20032 5.42035Z" fill="#213F7D" stroke="#213F7D" stroke-width="0.2"/>
<path d="M11.2003 5.42035C11.3836 5.42048 11.5402 5.57692 11.5402 5.76019V11.8403C11.54 12.0234 11.3835 12.18 11.2003 12.1801C11.0171 12.1801 10.8607 12.0235 10.8605 11.8403V5.76019C10.8605 5.57684 11.017 5.42035 11.2003 5.42035Z" fill="#213F7D" stroke="#213F7D" stroke-width="0.2"/>
<path d="M12.8003 5.42035C12.9835 5.42048 13.1401 5.57692 13.1401 5.76019V11.8403C13.14 12.0234 12.9834 12.18 12.8003 12.1801C12.617 12.1801 12.4606 12.0235 12.4604 11.8403V5.76019C12.4604 5.57684 12.6169 5.42035 12.8003 5.42035Z" fill="#213F7D" stroke="#213F7D" stroke-width="0.2"/>
<path d="M7.83618 1.46594C7.94323 1.40155 8.08406 1.39512 8.18677 1.4718L13.5208 4.64856C13.6353 4.70074 13.716 4.83048 13.7161 4.95911V4.9718L13.7141 4.97083C13.7005 5.08283 13.6324 5.18724 13.5354 5.24719L13.5823 5.29993H2.63989C2.48447 5.29986 2.34211 5.18962 2.31763 5.04016L2.3186 5.03918C2.27903 4.88182 2.35227 4.74951 2.4729 4.66907L2.47681 4.66614L7.83618 1.46692V1.46594ZM3.86548 4.62024H12.1194L7.99927 2.14758L3.86548 4.62024Z" fill="#213F7D" stroke="#213F7D" stroke-width="0.2"/>
<path d="M13.36 12.3004C13.5433 12.3004 13.6998 12.4568 13.6998 12.6402C13.6997 12.8235 13.5433 12.98 13.36 12.98H2.64026C2.45698 12.98 2.30055 12.8235 2.30042 12.6402C2.30042 12.4568 2.45691 12.3004 2.64026 12.3004H13.36Z" fill="#213F7D" stroke="#213F7D" stroke-width="0.2"/>
<path d="M14.1597 13.1003C14.343 13.1003 14.5005 13.2568 14.5005 13.4402C14.5004 13.6234 14.3429 13.78 14.1597 13.78H1.84033C1.65706 13.78 1.50062 13.6234 1.50049 13.4402C1.50049 13.2568 1.65698 13.1003 1.84033 13.1003H14.1597Z" fill="#213F7D" stroke="#213F7D" stroke-width="0.2"/>
<path d="M14.9602 13.9003C15.1435 13.9004 15.3 14.0569 15.3 14.2402C15.2999 14.4234 15.1434 14.5799 14.9602 14.58H1.04028C0.857008 14.58 0.700573 14.4234 0.700439 14.2402C0.700439 14.0568 0.85693 13.9003 1.04028 13.9003H14.9602Z" fill="#213F7D" stroke="#213F7D" stroke-width="0.2"/>
</svg>
