<svg width="16" height="16" viewBox="0 0 16 16" fill="none" xmlns="http://www.w3.org/2000/svg">
<path d="M8 3.0365C9.83851 3.0366 11.4995 3.88567 12.7979 4.85583C13.9379 5.70768 14.8031 6.66047 15.2764 7.22888V7.224L15.4531 7.43982C15.7068 7.74878 15.7063 8.24809 15.4531 8.55701L15.4541 8.55798C15.043 9.07387 14.0971 10.173 12.7979 11.1439C11.4995 12.1142 9.83851 12.9632 8 12.9633C6.1615 12.9633 4.50051 12.114 3.20215 11.1459C1.90278 10.1769 0.956583 9.0818 0.545898 8.57458L0.544922 8.57361C0.277669 8.23466 0.27494 7.76787 0.544922 7.44177L0.951172 6.95642C1.45155 6.38435 2.22763 5.584 3.20215 4.85583C4.50055 3.88572 6.1615 3.0365 8 3.0365ZM8 4.24353C6.48689 4.24353 5.06331 4.96939 3.92285 5.8158C2.83646 6.6221 2.01764 7.53103 1.63477 7.99841C2.02655 8.45429 2.84591 9.36271 3.92969 10.1722C5.06829 11.0227 6.48736 11.7562 8 11.7562C9.51294 11.7561 10.932 11.0303 12.0703 10.184C13.1553 9.37728 13.974 8.46733 14.3643 7.99939C13.9738 7.5313 13.1549 6.62217 12.0703 5.8158C10.932 4.96946 9.51294 4.24363 8 4.24353Z" fill="#545F7D" stroke="#545F7D" stroke-width="0.2"/>
<path d="M8.00049 4.90857C9.70365 4.90876 11.0923 6.29716 11.0923 8.00037C11.0921 9.70342 9.70354 11.092 8.00049 11.0922C6.29728 11.0922 4.90888 9.70353 4.90869 8.00037C4.90869 6.29704 6.2971 4.90857 8.00049 4.90857ZM8.00049 6.11658C6.96767 6.11658 6.1167 6.96747 6.1167 8.00037C6.1168 9.0325 6.96767 9.88416 8.00049 9.88416C9.03309 9.88396 9.88417 9.03298 9.88428 8.00037C9.88428 6.96766 9.03315 6.11677 8.00049 6.11658Z" fill="#545F7D" stroke="#545F7D" stroke-width="0.2"/>
</svg>
