<svg width="18" height="18" viewBox="0 0 18 18" fill="none" xmlns="http://www.w3.org/2000/svg">
<g clip-path="url(#clip0_5530_2585)">
<path d="M11.625 -0.0996094C12.9713 -0.099582 14.2046 0.131079 15.1055 0.53418C15.9998 0.934439 16.6006 1.52193 16.6006 2.25C16.6006 2.97807 15.9998 3.56556 15.1055 3.96582C14.2046 4.36892 12.9713 4.59958 11.625 4.59961C10.2789 4.59961 9.04534 4.36898 8.14453 3.96582C7.25029 3.56556 6.65039 2.97807 6.65039 2.25C6.65039 1.52193 7.25029 0.934439 8.14453 0.53418C9.04534 0.131021 10.2789 -0.0996094 11.625 -0.0996094ZM11.625 0.850586C10.486 0.850586 9.467 1.03887 8.73633 1.31641C8.37056 1.45534 8.08125 1.61488 7.88574 1.78027C7.68851 1.9472 7.60059 2.10808 7.60059 2.25C7.60059 2.39192 7.68851 2.5528 7.88574 2.71973C8.08125 2.88512 8.37056 3.04466 8.73633 3.18359C9.467 3.46113 10.486 3.64941 11.625 3.64941C12.7639 3.64939 13.7829 3.46113 14.5137 3.18359C14.8795 3.04466 15.1687 2.88512 15.3643 2.71973C15.5616 2.55277 15.6504 2.39193 15.6504 2.25C15.6504 2.10807 15.5616 1.94723 15.3643 1.78027C15.1687 1.61488 14.8795 1.45534 14.5137 1.31641C13.7829 1.03887 12.7639 0.850612 11.625 0.850586Z" fill="#FF3366" stroke="#FF3366" stroke-width="0.2"/>
<path d="M7.60059 2.15039V4.5C7.60059 4.64192 7.68851 4.8028 7.88574 4.96973C8.08125 5.13512 8.37056 5.29466 8.73633 5.43359C9.467 5.71113 10.486 5.89941 11.625 5.89941C12.7639 5.89939 13.7829 5.71112 14.5137 5.43359C14.8795 5.29466 15.1687 5.13512 15.3643 4.96973C15.5616 4.80277 15.6504 4.64193 15.6504 4.5V2.15039H16.6006V4.5C16.6006 5.22807 15.9998 5.81556 15.1055 6.21582C14.2046 6.61892 12.9713 6.84958 11.625 6.84961C10.2789 6.84961 9.04534 6.61898 8.14453 6.21582C7.25029 5.81556 6.65039 5.22807 6.65039 4.5V2.15039H7.60059Z" fill="#FF3366" stroke="#FF3366" stroke-width="0.2"/>
<path d="M16.6006 4.40033V6.74994C16.6006 7.47801 15.9998 8.0655 15.1055 8.46576C14.2046 8.86886 12.9713 9.09952 11.625 9.09955C11.2407 9.09955 10.8653 9.08103 10.5049 9.04486L10.501 8.94525L10.415 8.9472C10.4059 8.56978 10.3994 8.31446 10.3994 8.24994C10.3994 8.23408 10.3987 8.21696 10.3965 8.20013L10.3799 8.07318L10.5068 8.08783C10.8616 8.12817 11.2363 8.14935 11.625 8.14935C12.7639 8.14933 13.7829 7.96106 14.5137 7.68353C14.8795 7.5446 15.1687 7.38506 15.3643 7.21967C15.5616 7.05271 15.6504 6.89187 15.6504 6.74994V4.40033H16.6006ZM7.60059 4.40033V6.74994C7.60059 6.76643 7.60126 6.78284 7.60352 6.79974L7.62012 6.9267L7.49316 6.91205C7.25315 6.88492 7.00295 6.86641 6.74609 6.85736L6.73828 6.85638L6.72949 6.85443L6.65039 6.83881V4.40033H7.60059Z" fill="#FF3366" stroke="#FF3366" stroke-width="0.2"/>
<path d="M16.6006 6.65045V9.00006C16.6006 9.72813 15.9998 10.3156 15.1055 10.7159C14.2046 11.119 12.9713 11.3496 11.625 11.3497C11.2612 11.3497 10.9053 11.3335 10.5625 11.3008L10.3096 11.2764L10.4707 11.1514C10.4642 10.9101 10.458 10.6738 10.4521 10.4464L10.4492 10.3321L10.5635 10.3438C10.9008 10.38 11.2574 10.3995 11.625 10.3995C12.7639 10.3994 13.7829 10.2112 14.5137 9.93365C14.8795 9.79473 15.1687 9.63517 15.3643 9.46979C15.5616 9.30285 15.6504 9.14198 15.6504 9.00006V6.65045H16.6006ZM7.60059 6.65045V6.92389L7.48926 6.91119C7.24972 6.88473 7.00153 6.86653 6.74609 6.85748L6.65039 6.85358V6.65045H7.60059Z" fill="#FF3366" stroke="#FF3366" stroke-width="0.2"/>
<path d="M6.375 6.65039C7.721 6.65039 8.95468 6.88108 9.85547 7.28418C10.7497 7.68444 11.3506 8.27193 11.3506 9C11.3506 9.72807 10.7497 10.3156 9.85547 10.7158C8.95468 11.1189 7.721 11.3496 6.375 11.3496C5.02869 11.3496 3.79533 11.119 2.89453 10.7158C2.0002 10.3156 1.40039 9.72807 1.40039 9C1.40039 8.27193 2.0002 7.68444 2.89453 7.28418C3.79533 6.88105 5.02869 6.65045 6.375 6.65039ZM6.375 7.60059C5.23621 7.60064 4.21709 7.7889 3.48633 8.06641C3.12076 8.20526 2.83225 8.365 2.63672 8.53027C2.43924 8.69728 2.35059 8.85803 2.35059 9C2.35059 9.14196 2.43924 9.30272 2.63672 9.46973C2.83225 9.635 3.12076 9.79474 3.48633 9.93359C4.21709 10.2111 5.23621 10.3994 6.375 10.3994C7.51385 10.3994 8.53301 10.2111 9.26367 9.93359C9.62944 9.79466 9.91875 9.63512 10.1143 9.46973C10.3116 9.30276 10.4004 9.14195 10.4004 9C10.4004 8.85805 10.3116 8.69724 10.1143 8.53027C9.91875 8.36488 9.62944 8.20534 9.26367 8.06641C8.53301 7.78891 7.51385 7.60059 6.375 7.60059Z" fill="#FF3366" stroke="#FF3366" stroke-width="0.2"/>
<path d="M2.35059 8.90039V11.25C2.35059 11.392 2.43924 11.5527 2.63672 11.7197C2.83225 11.885 3.12076 12.0447 3.48633 12.1836C4.21709 12.4611 5.23621 12.6494 6.375 12.6494C7.51385 12.6494 8.53301 12.4611 9.26367 12.1836C9.62944 12.0447 9.91875 11.8851 10.1143 11.7197C10.3116 11.5528 10.4004 11.392 10.4004 11.25V8.90039H11.3506V11.25C11.3506 11.9781 10.7497 12.5656 9.85547 12.9658C8.95468 13.3689 7.721 13.5996 6.375 13.5996C5.02869 13.5996 3.79533 13.369 2.89453 12.9658C2.0002 12.5656 1.40039 11.9781 1.40039 11.25V8.90039H2.35059Z" fill="#FF3366" stroke="#FF3366" stroke-width="0.2"/>
<path d="M2.35059 11.1504V13.5C2.35059 13.642 2.43924 13.8027 2.63672 13.9697C2.83225 14.135 3.12076 14.2947 3.48633 14.4336C4.21709 14.7111 5.23621 14.8994 6.375 14.8994C7.51385 14.8994 8.53301 14.7111 9.26367 14.4336C9.62944 14.2947 9.91875 14.1351 10.1143 13.9697C10.3116 13.8028 10.4004 13.642 10.4004 13.5V11.1504H11.3506V13.5C11.3506 14.2281 10.7497 14.8156 9.85547 15.2158C8.95468 15.6189 7.721 15.8496 6.375 15.8496C5.02869 15.8496 3.79533 15.619 2.89453 15.2158C2.0002 14.8156 1.40039 14.2281 1.40039 13.5V11.1504H2.35059Z" fill="#FF3366" stroke="#FF3366" stroke-width="0.2"/>
<path d="M2.35059 13.4004V15.75C2.35059 15.892 2.43924 16.0527 2.63672 16.2197C2.83225 16.385 3.12076 16.5447 3.48633 16.6836C4.21709 16.9611 5.23621 17.1494 6.375 17.1494C7.51385 17.1494 8.53301 16.9611 9.26367 16.6836C9.62944 16.5447 9.91875 16.3851 10.1143 16.2197C10.3116 16.0528 10.4004 15.892 10.4004 15.75V13.4004H11.3506V15.75C11.3506 16.4781 10.7497 17.0656 9.85547 17.4658C8.95468 17.8689 7.721 18.0996 6.375 18.0996C5.02869 18.0996 3.79533 17.869 2.89453 17.4658C2.0002 17.0656 1.40039 16.4781 1.40039 15.75V13.4004H2.35059Z" fill="#FF3366" stroke="#FF3366" stroke-width="0.2"/>
<path d="M16.6006 8.90042V11.25C16.6006 11.9781 15.9998 12.5656 15.1055 12.9659C14.2046 13.3689 12.9713 13.5996 11.625 13.5996C11.2825 13.5996 10.9474 13.5848 10.623 13.5557L10.5625 13.5508L10.5391 13.4942L10.5322 13.4776V13.459C10.5259 13.2153 10.519 12.961 10.5127 12.7022L10.5098 12.5889L10.6221 12.6006C10.9422 12.6326 11.2782 12.6494 11.625 12.6494C12.7639 12.6494 13.7828 12.4612 14.5137 12.1836C14.8795 12.0447 15.1687 11.8852 15.3643 11.7198C15.5616 11.5528 15.6504 11.392 15.6504 11.25V8.90042H16.6006Z" fill="#FF3366" stroke="#FF3366" stroke-width="0.2"/>
<path d="M16.6006 11.1504V13.5C16.6006 14.228 16.0005 14.8156 15.1064 15.2158C14.2056 15.619 12.9715 15.8496 11.625 15.8496C11.3046 15.8496 10.9897 15.8363 10.6855 15.8115L10.6211 15.8066L10.5996 15.7461L10.5938 15.7305V15.7148C10.5909 15.6183 10.5838 15.345 10.5732 14.958L10.5693 14.8457L10.6826 14.8555C10.9845 14.884 11.2999 14.8994 11.625 14.8994C12.7639 14.8994 13.7828 14.7111 14.5137 14.4336C14.8795 14.2947 15.1687 14.1351 15.3643 13.9697C15.5617 13.8027 15.6504 13.6419 15.6504 13.5V11.1504H16.6006Z" fill="#FF3366" stroke="#FF3366" stroke-width="0.2"/>
</g>
<defs>
<clipPath id="clip0_5530_2585">
<rect width="18" height="18" fill="white"/>
</clipPath>
</defs>
</svg>
