<svg width="24" height="24" viewBox="0 0 24 24" fill="none" xmlns="http://www.w3.org/2000/svg">
<path d="M17.9304 19.6199C17.5104 14.5852 11.3814 12.2253 7.77222 15.8728C6.80705 16.8488 6.17083 18.1941 6.04956 19.6199H17.9304ZM16.3523 11.4207C15.8819 12.2386 15.1922 12.9136 14.3601 13.3611C15.5211 13.7743 16.5451 14.487 17.3435 15.4041H20.9548C20.6883 13.0931 18.7194 11.3423 16.3523 11.4207ZM7.64917 11.4207C5.2826 11.3429 3.31414 13.0944 3.04761 15.4041H6.6355C7.4366 14.4818 8.4657 13.7708 9.63159 13.3562C8.80269 12.9107 8.11741 12.2355 7.64917 11.4207ZM11.988 4.98904C9.2419 4.99014 7.2784 7.87742 8.50073 10.5398C9.88154 13.5437 14.118 13.541 15.4988 10.5398C16.6823 7.96699 14.9018 5.02485 11.988 4.98904ZM18.5291 5.22049C17.5822 4.26328 16.1117 4.11123 14.9949 4.82889C16.6081 6.03682 17.3696 8.11262 16.8757 10.115C19.1941 9.82808 20.211 6.91941 18.5291 5.22049ZM9.00757 4.82791C7.14963 3.62727 4.64057 4.96059 4.64038 7.26053C4.64038 8.71797 5.71215 9.93256 7.12378 10.1131C6.63107 8.1109 7.39435 6.03518 9.00757 4.82791ZM22.1433 15.9812C22.1433 16.3006 21.8847 16.5602 21.5642 16.5603H18.1638C18.7587 17.6096 19.1335 18.9317 19.1335 20.199C19.1335 20.5185 18.8751 20.7781 18.5544 20.7781L5.41577 20.7752H5.40894C5.24286 20.7636 5.10539 20.6931 5.0105 20.5769C4.93584 20.4855 4.89265 20.3705 4.87769 20.243H4.86792V20.1433C4.86792 18.8383 5.2144 17.6162 5.81421 16.5613H2.4353C2.26469 16.5613 2.11878 16.4982 2.01538 16.3836C1.91329 16.2704 1.85954 16.1151 1.8562 15.9402V15.7215C1.89699 13.5383 3.34591 11.5119 5.35718 10.6795C1.99561 8.57299 3.4527 3.22244 7.48218 3.22244C8.45433 3.22251 9.37691 3.57803 10.0955 4.20682C11.3072 3.70739 12.6923 3.70739 13.9041 4.20682C16.4677 1.96185 20.518 3.79553 20.5183 7.25858C20.5183 8.6745 19.7842 9.95037 18.6394 10.6775C20.76 11.5462 22.1127 13.5777 22.1433 15.9803V15.9812Z" fill="#5718FF" stroke="#5718FF" stroke-width="0.2"/>
<path d="M13.6077 9.50116C13.7498 9.46596 13.899 9.49074 14.0237 9.55487C14.1484 9.61907 14.2552 9.72639 14.3088 9.86249C14.3632 10.001 14.3592 10.1626 14.2747 10.3264C13.3196 12.1789 10.6818 12.1788 9.72583 10.3264C9.64155 10.1625 9.63817 10.0009 9.69263 9.86249C9.74626 9.72641 9.85323 9.61901 9.97778 9.55487C10.1022 9.49094 10.2512 9.46685 10.3928 9.50214C10.537 9.5382 10.6669 9.63444 10.7512 9.79803C11.2786 10.8154 12.7213 10.8176 13.2473 9.79803C13.3324 9.63413 13.4629 9.53712 13.6077 9.50116Z" fill="#5718FF" stroke="#5718FF" stroke-width="0.2"/>
</svg>
