<svg width="14" height="14" viewBox="0 0 14 14" fill="none" xmlns="http://www.w3.org/2000/svg">
<g clip-path="url(#clip0_5530_2525)">
<path d="M10.6968 12.9022L10.6997 12.8993L10.8208 12.9882L10.8228 12.9862L10.8247 12.9833L13.3589 9.44421C13.4719 9.28662 13.4539 9.08197 13.3286 8.94714L13.2681 8.89343C13.203 8.84631 13.1298 8.8238 13.0581 8.82019L13.0493 8.8114L12.9731 8.8241C12.8717 8.84041 12.7806 8.89614 12.7173 8.98425L10.1821 12.5194C10.0896 12.6233 9.97165 12.6517 9.90576 12.6561H9.90479C9.83681 12.6609 9.7084 12.6479 9.60107 12.5487L9.59814 12.5458L7.96631 10.954C7.80801 10.7992 7.56278 10.8033 7.40869 10.9608C7.25444 11.1186 7.25757 11.3629 7.41455 11.5175H7.41553L9.05029 13.1132L9.05225 13.1151C9.27506 13.3271 9.57346 13.4452 9.87939 13.4452C9.89983 13.4452 9.9239 13.4436 9.94678 13.4423V13.4432H9.9585C10.2887 13.4215 10.5983 13.2598 10.8071 13.0028L10.8101 13.0009L10.8149 12.995C10.8159 12.9938 10.8161 12.992 10.8169 12.9911H10.8179L10.8169 12.9921L10.7114 12.913L10.6968 12.9022ZM10.6968 12.9022L10.8013 13.0057C10.7999 13.0069 10.7991 13.0092 10.7974 13.0106C10.7943 13.013 10.7854 13.0198 10.7729 13.0262C10.7663 13.0295 10.7492 13.0361 10.7388 13.0389C10.7223 13.0418 10.681 13.041 10.6567 13.035C10.642 13.0283 10.6229 13.0144 10.606 12.9989C10.6111 12.9939 10.6175 12.9903 10.6226 12.9852L10.6948 12.9042L10.6968 12.9022ZM6.99951 0.554565C8.85581 0.554565 10.3606 2.06074 10.3608 3.91687C10.3608 4.94967 9.89438 5.87309 9.16162 6.49011L9.01123 6.60925L8.83057 6.74402L9.04443 6.81433C9.86902 7.08529 10.6375 7.52163 11.3013 8.10144C11.4679 8.24718 11.4846 8.49077 11.3394 8.6571C11.1931 8.82347 10.9485 8.83907 10.7827 8.69421C9.83329 7.8647 8.64048 7.37289 7.38818 7.28796L7.13721 7.27625H7.13037L6.99854 7.27917L6.86768 7.27625H6.86084L6.61279 7.28796C4.06534 7.46035 1.8932 9.32364 1.36768 11.8466V11.8475C1.32747 12.0396 1.37677 12.2408 1.50049 12.3934L1.50439 12.3983C1.57947 12.4893 1.749 12.6327 2.00146 12.6327H6.51318C6.73387 12.6329 6.90674 12.8064 6.90674 13.0272C6.90664 13.2492 6.73315 13.4206 6.51318 13.4208H2.00146C1.56696 13.4208 1.16315 13.2292 0.88916 12.8925C0.613426 12.5533 0.507675 12.1163 0.597168 11.6874C0.898856 10.2391 1.6976 8.91981 2.84717 7.97449C3.47422 7.45886 4.19129 7.06755 4.95459 6.81628L5.16846 6.745L4.98877 6.61023C4.16967 5.99654 3.63723 5.02001 3.63721 3.91785C3.63721 2.10422 5.07414 0.62645 6.87061 0.558472L6.87158 0.554565H6.99951ZM6.73584 1.35632C5.44143 1.48867 4.42354 2.58894 4.42334 3.91687V4.03503H4.4624L4.47607 4.1698C4.60501 5.42429 5.60271 6.42518 6.86865 6.48816L6.87842 6.48914H6.87939C6.91718 6.48863 6.96076 6.48718 6.99951 6.48718C7.03836 6.48718 7.07875 6.48705 7.12061 6.48816H7.12939L7.38037 6.46375C8.61869 6.27902 9.57373 5.20456 9.57373 3.91687C9.57351 2.49988 8.41516 1.34363 6.99854 1.34363L6.73584 1.35632Z" fill="#545F7D" stroke="#545F7D" stroke-width="0.3"/>
</g>
<defs>
<clipPath id="clip0_5530_2525">
<rect width="14" height="14" fill="white"/>
</clipPath>
</defs>
</svg>
