<svg width="14" height="14" viewBox="0 0 14 14" fill="none" xmlns="http://www.w3.org/2000/svg">
<path d="M6.36816 6.46869C7.58194 6.53028 8.73405 7.0392 9.59766 7.90228C10.5181 8.8233 11.0354 10.0726 11.0371 11.3749V13.1249C11.0371 13.2672 10.9808 13.4039 10.8799 13.5048C10.779 13.6057 10.6423 13.662 10.5 13.662H1.75C1.60769 13.662 1.47101 13.6057 1.37012 13.5048C1.26924 13.4039 1.21289 13.2672 1.21289 13.1249V11.3749L1.21875 11.1318C1.28035 9.91801 1.78927 8.76588 2.65234 7.90228C3.51591 7.03922 4.66801 6.53024 5.88184 6.46869L6.125 6.46283L6.36816 6.46869ZM8.04395 8.0517C6.85648 7.36575 5.39354 7.36575 4.20605 8.0517C3.01866 8.73704 2.28713 10.0041 2.28711 11.3749V12.5878H9.96289L9.96191 11.3749C9.96189 10.0043 9.23135 8.73711 8.04395 8.0517ZM11.4863 4.37885C11.6974 4.17449 12.0328 4.17794 12.2402 4.3847L12.3086 4.46771C12.4451 4.67374 12.425 4.95385 12.2461 5.13861L11.6973 5.68744L12.2441 6.23431L12.3135 6.31537C12.3742 6.40316 12.4072 6.50789 12.4082 6.61615C12.4092 6.72409 12.3774 6.82922 12.3184 6.91791L12.251 7.00092C12.1494 7.10303 12.0101 7.15949 11.8662 7.15814C11.7225 7.15679 11.5854 7.09845 11.4854 6.99506L10.9375 6.4472L10.3887 6.99603C10.2039 7.17489 9.9238 7.19505 9.71777 7.05853L9.63477 6.99017C9.42801 6.78275 9.42454 6.44736 9.62891 6.23627L10.1777 5.68744L9.62891 5.13861C9.42455 4.92753 9.428 4.59213 9.63477 4.3847L9.71777 4.31635C9.89425 4.19945 10.1251 4.19733 10.3037 4.31146L10.3887 4.37885L10.9375 4.92767L11.4863 4.37885ZM6.125 0.33783C6.84772 0.33783 7.54083 0.62476 8.05176 1.13568C8.56268 1.64663 8.8496 2.33972 8.84961 3.06244C8.84961 3.78516 8.56268 4.47827 8.05176 4.9892C7.5408 5.50012 6.84771 5.78705 6.125 5.78705H6.08398L6.08105 5.78412C5.37443 5.77218 4.69969 5.48888 4.19922 4.9892L4.19824 4.98822C3.68823 4.47739 3.40096 3.78495 3.40039 3.06244C3.4004 2.33972 3.68732 1.6466 4.19824 1.13568C4.7092 0.624761 5.40228 0.33783 6.125 0.33783ZM6.125 1.41205C5.21393 1.41318 4.47572 2.15137 4.47461 3.06244C4.47461 3.72962 4.87707 4.3316 5.49316 4.58685C6.10984 4.8426 6.82021 4.70122 7.29199 4.22943C7.76376 3.75768 7.90516 3.04728 7.64941 2.4306C7.39414 1.81453 6.79216 1.41205 6.125 1.41205Z" fill="#545F7D" stroke="#545F7D" stroke-width="0.2"/>
</svg>
