<svg width="118" height="104" viewBox="0 0 118 104" fill="none" xmlns="http://www.w3.org/2000/svg">
<path d="M58.9712 81.6C59.5125 81.6 59.9512 81.1612 59.9512 80.62C59.9512 80.0788 59.5125 79.64 58.9712 79.64C58.43 79.64 57.9912 80.0788 57.9912 80.62C57.9912 81.1612 58.43 81.6 58.9712 81.6Z" fill="#CFCFCF"/>
<path d="M30.501 7.82001V12.12" stroke="#545F7D" stroke-opacity="0.2" stroke-linecap="round" stroke-linejoin="round"/>
<path d="M28.3413 9.97003H32.6513" stroke="#545F7D" stroke-opacity="0.2" stroke-linecap="round" stroke-linejoin="round"/>
<path d="M79.4512 34.94C71.0812 34.94 62.5612 34.6 54.5912 32.38C46.7712 30.21 39.5912 26 33.1912 21.13C29.0012 17.96 25.1912 15.43 19.7512 15.81C14.4293 16.098 9.34 18.0854 5.23121 21.48C-1.68879 27.54 -0.648793 38.77 2.12121 46.63C6.28121 58.5 18.9412 66.77 29.7012 72.12C42.1312 78.33 55.7912 81.94 69.4812 84.01C81.4812 85.84 96.9012 87.16 107.301 79.33C116.851 72.12 119.471 55.68 117.131 44.58C116.563 41.3009 114.817 38.3421 112.221 36.26C105.511 31.35 95.5012 34.63 87.9612 34.79C85.1612 34.85 82.3112 34.92 79.4512 34.94Z" fill="#213F7D" fill-opacity="0.06"/>
<path d="M65.9112 1.96C66.4524 1.96 66.8912 1.52124 66.8912 0.98C66.8912 0.43876 66.4524 0 65.9112 0C65.3699 0 64.9312 0.43876 64.9312 0.98C64.9312 1.52124 65.3699 1.96 65.9112 1.96Z" fill="#CFCFCF"/>
<path d="M14.9912 78.27V82.57" stroke="#545F7D" stroke-opacity="0.2" stroke-linecap="round" stroke-linejoin="round"/>
<path d="M12.8413 80.42H17.1413" stroke="#545F7D" stroke-opacity="0.2" stroke-linecap="round" stroke-linejoin="round"/>
<path d="M59.3711 103.47C79.6455 103.47 96.0811 102.445 96.0811 101.18C96.0811 99.9153 79.6455 98.89 59.3711 98.89C39.0968 98.89 22.6611 99.9153 22.6611 101.18C22.6611 102.445 39.0968 103.47 59.3711 103.47Z" fill="#213F7D" fill-opacity="0.06"/>
<path d="M88.8809 76.65H25.4709C25.0466 76.6497 24.6273 76.5572 24.2422 76.379C23.8571 76.2007 23.5153 75.941 23.2405 75.6176C22.9657 75.2943 22.7643 74.9151 22.6504 74.5063C22.5366 74.0975 22.5128 73.6689 22.5809 73.25L30.6909 24.07C30.8005 23.3855 31.1508 22.7627 31.6788 22.3135C32.2068 21.8644 32.8777 21.6184 33.5709 21.62H96.9809C97.405 21.62 97.8239 21.7124 98.2086 21.8908C98.5934 22.0691 98.9346 22.3291 99.2087 22.6527C99.4828 22.9762 99.6831 23.3556 99.7958 23.7645C99.9084 24.1733 99.9306 24.6017 99.8609 25.02L91.7909 74.2C91.6786 74.8887 91.3234 75.5145 90.7896 75.9639C90.2558 76.4133 89.5787 76.6567 88.8809 76.65Z" fill="#A7AAB4"/>
<path d="M89.6623 20.3339L52.0235 3.52876C50.9141 3.0334 49.6131 3.53123 49.1177 4.6407L37.1886 31.3586C36.6933 32.468 37.1911 33.769 38.3006 34.2643L75.9393 51.0695C77.0488 51.5648 78.3498 51.067 78.8451 49.9575L90.7742 23.2397C91.2696 22.1302 90.7717 20.8292 89.6623 20.3339Z" fill="white" stroke="#545F7D" stroke-opacity="0.2" stroke-linecap="round" stroke-linejoin="round"/>
<path d="M57.541 25.5101C58.5317 24.1199 59.9726 23.115 61.6195 22.6657C63.2664 22.2164 65.0179 22.3503 66.5774 23.0447C68.1368 23.7391 69.4082 24.9513 70.1762 26.4759C70.9441 28.0004 71.1613 29.7436 70.791 31.41" stroke="#545F7D" stroke-opacity="0.2" stroke-width="0.68" stroke-linecap="round" stroke-linejoin="round"/>
<path d="M75.5412 24C76.1101 24 76.5712 23.5389 76.5712 22.97C76.5712 22.4012 76.1101 21.94 75.5412 21.94C74.9724 21.94 74.5112 22.4012 74.5112 22.97C74.5112 23.5389 74.9724 24 75.5412 24Z" fill="#545F7D" fill-opacity="0.2"/>
<path d="M60.6213 17.34C61.1902 17.34 61.6513 16.8789 61.6513 16.31C61.6513 15.7412 61.1902 15.28 60.6213 15.28C60.0525 15.28 59.5913 15.7412 59.5913 16.31C59.5913 16.8789 60.0525 17.34 60.6213 17.34Z" fill="#545F7D" fill-opacity="0.2"/>
<path d="M88.6013 76.63H24.8813C24.1059 76.6274 23.3632 76.3175 22.8159 75.7683C22.2686 75.2191 21.9613 74.4754 21.9613 73.7V28.77C21.952 28.3802 22.0205 27.9925 22.163 27.6296C22.3054 27.2666 22.5189 26.9358 22.7908 26.6564C23.0628 26.377 23.3877 26.1547 23.7467 26.0025C24.1057 25.8503 24.4914 25.7712 24.8813 25.77H48.0913C48.6299 25.772 49.1575 25.9224 49.6161 26.2046C50.0748 26.4869 50.4468 26.8901 50.6913 27.37L54.0013 33.85C54.2449 34.3306 54.6167 34.7345 55.0755 35.0169C55.5344 35.2993 56.0625 35.4492 56.6013 35.45H88.6013C89.3757 35.45 90.1184 35.7577 90.666 36.3053C91.2136 36.8529 91.5213 37.5956 91.5213 38.37V73.7C91.5213 74.4754 91.214 75.2191 90.6666 75.7683C90.1193 76.3175 89.3766 76.6274 88.6013 76.63Z" fill="white" stroke="#545F7D" stroke-opacity="0.2" stroke-linecap="round" stroke-linejoin="round"/>
<path d="M78.7909 36.98C75.1098 36.9781 71.5107 38.0678 68.449 40.1115C65.3873 42.1552 63.0005 45.061 61.5904 48.4614C60.1803 51.8617 59.8103 55.6039 60.5273 59.2145C61.2442 62.8252 63.0159 66.1421 65.6181 68.7458C68.2204 71.3494 71.5363 73.1228 75.1466 73.8417C78.7569 74.5606 82.4992 74.1926 85.9003 72.7844C89.3015 71.3761 92.2085 68.9909 94.2539 65.9302C96.2992 62.8696 97.3909 59.2712 97.3909 55.59C97.3909 50.6561 95.4316 45.9241 91.9437 42.4343C88.4558 38.9446 83.7249 36.9827 78.7909 36.98Z" fill="white" stroke="#545F7D" stroke-opacity="0.2" stroke-linecap="round" stroke-linejoin="round"/>
<path d="M92.0312 69.09L96.9912 74.05" stroke="#545F7D" stroke-opacity="0.2" stroke-linecap="round" stroke-linejoin="round"/>
<path d="M96.4303 71.6401L94.8894 73.2521C94.1986 73.9747 94.2244 75.1204 94.947 75.8111L108.32 88.5948C109.042 89.2856 110.188 89.2598 110.879 88.5372L112.42 86.9252C113.11 86.2027 113.085 85.0569 112.362 84.3662L98.9894 71.5825C98.2668 70.8917 97.1211 70.9175 96.4303 71.6401Z" fill="#B9BABF"/>
<path d="M106.331 0.980042V5.29004" stroke="#545F7D" stroke-opacity="0.2" stroke-linecap="round" stroke-linejoin="round"/>
<path d="M104.171 3.14001H108.481" stroke="#545F7D" stroke-opacity="0.2" stroke-linecap="round" stroke-linejoin="round"/>
</svg>
