<svg width="118" height="105" viewBox="0 0 118 105" fill="none" xmlns="http://www.w3.org/2000/svg">
<path d="M79.4512 35.9899C71.0812 35.9899 62.5612 35.6499 54.5912 33.4299C46.7712 31.2599 39.5912 27.0499 33.1912 22.1799C29.0012 19.0099 25.1912 16.4899 19.7512 16.8699C14.4247 17.1615 9.3336 19.1601 5.23121 22.5699C-1.68879 28.5699 -0.648793 39.7999 2.12121 47.6899C6.28121 59.5699 18.9412 67.7999 29.7012 73.1799C42.1312 79.3899 55.7912 82.9899 69.4812 85.0699C81.4812 86.8899 96.9012 88.2199 107.301 80.3799C116.851 73.1799 119.471 56.7399 117.131 45.6399C116.564 42.3578 114.818 39.3957 112.221 37.3099C105.511 32.4099 95.5012 35.6799 87.9612 35.8499C85.1612 35.9099 82.3112 35.9799 79.4512 35.9899Z" fill="#213F7D" fill-opacity="0.06"/>
<path d="M58.9712 104.52C79.2456 104.52 95.6812 103.495 95.6812 102.23C95.6812 100.965 79.2456 99.9399 58.9712 99.9399C38.6969 99.9399 22.2612 100.965 22.2612 102.23C22.2612 103.495 38.6969 104.52 58.9712 104.52Z" fill="#213F7D" fill-opacity="0.06"/>
<path d="M6.33156 71.9999C6.8728 71.9999 7.31156 71.5612 7.31156 71.0199C7.31156 70.4787 6.8728 70.0399 6.33156 70.0399C5.79032 70.0399 5.35156 70.4787 5.35156 71.0199C5.35156 71.5612 5.79032 71.9999 6.33156 71.9999Z" fill="#CFCFCF"/>
<path d="M48.5713 84.4299V88.7399" stroke="#545F7D" stroke-opacity="0.2" stroke-linecap="round" stroke-linejoin="round"/>
<path d="M46.4209 86.59H50.7209" stroke="#545F7D" stroke-opacity="0.2" stroke-linecap="round" stroke-linejoin="round"/>
<path d="M100.201 16.6499H17.7311C15.5993 16.6499 13.8711 18.3781 13.8711 20.5099V77.0799C13.8711 79.2117 15.5993 80.9399 17.7311 80.9399H100.201C102.333 80.9399 104.061 79.2117 104.061 77.0799V20.5099C104.061 18.3781 102.333 16.6499 100.201 16.6499Z" fill="white" stroke="#545F7D" stroke-opacity="0.2" stroke-linecap="round" stroke-linejoin="round"/>
<path d="M91.9012 33.75H26.0212C24.4969 33.75 23.2612 34.9857 23.2612 36.51V72.46C23.2612 73.9843 24.4969 75.22 26.0212 75.22H91.9012C93.4255 75.22 94.6612 73.9843 94.6612 72.46V36.51C94.6612 34.9857 93.4255 33.75 91.9012 33.75Z" fill="white" stroke="#545F7D" stroke-opacity="0.2" stroke-linecap="round" stroke-linejoin="round"/>
<path d="M104.061 27.4799V20.57C104.062 20.0622 103.964 19.5592 103.77 19.0897C103.577 18.6203 103.293 18.1935 102.934 17.8341C102.576 17.4746 102.15 17.1893 101.681 16.9947C101.212 16.8001 100.709 16.6999 100.201 16.7H17.7311C17.2234 16.6999 16.7206 16.8001 16.2516 16.9947C15.7827 17.1893 15.3567 17.4746 14.9981 17.8341C14.6396 18.1935 14.3554 18.6203 14.1621 19.0897C13.9687 19.5592 13.8698 20.0622 13.8711 20.57V27.57L104.061 27.4799Z" fill="#213F7D" fill-opacity="0.06"/>
<path d="M90.3413 10.9899C90.8826 10.9899 91.3213 10.5511 91.3213 10.0099C91.3213 9.46867 90.8826 9.02991 90.3413 9.02991C89.8001 9.02991 89.3613 9.46867 89.3613 10.0099C89.3613 10.5511 89.8001 10.9899 90.3413 10.9899Z" fill="#CFCFCF"/>
<path d="M29.1011 11.8499C29.6423 11.8499 30.0811 11.4111 30.0811 10.8699C30.0811 10.3287 29.6423 9.88989 29.1011 9.88989C28.5599 9.88989 28.1211 10.3287 28.1211 10.8699C28.1211 11.4111 28.5599 11.8499 29.1011 11.8499Z" fill="#CFCFCF"/>
<path d="M54.1812 4.38V8.68001" stroke="#545F7D" stroke-opacity="0.2" stroke-linecap="round" stroke-linejoin="round"/>
<path d="M52.0312 6.52991H56.3313" stroke="#545F7D" stroke-opacity="0.2" stroke-linecap="round" stroke-linejoin="round"/>
<path d="M9.10156 0.5V4.8" stroke="#545F7D" stroke-opacity="0.2" stroke-linecap="round" stroke-linejoin="round"/>
<path d="M6.95117 2.6499H11.2612" stroke="#545F7D" stroke-opacity="0.2" stroke-linecap="round" stroke-linejoin="round"/>
<path d="M46.4609 63.73C47.0974 60.8897 48.6822 58.3509 50.9542 56.5316C53.2263 54.7123 56.0502 53.7211 58.9609 53.7211C61.8716 53.7211 64.6955 54.7123 66.9676 56.5316C69.2397 58.3509 70.8245 60.8897 71.4609 63.73" stroke="#545F7D" stroke-opacity="0.2" stroke-linecap="round" stroke-linejoin="round"/>
<path d="M73.0915 48.81C74.0746 48.81 74.8715 48.0131 74.8715 47.03C74.8715 46.0469 74.0746 45.25 73.0915 45.25C72.1085 45.25 71.3115 46.0469 71.3115 47.03C71.3115 48.0131 72.1085 48.81 73.0915 48.81Z" fill="#545F7D" fill-opacity="0.2"/>
<path d="M44.8415 48.81C45.8246 48.81 46.6215 48.0131 46.6215 47.03C46.6215 46.0469 45.8246 45.25 44.8415 45.25C43.8585 45.25 43.0615 46.0469 43.0615 47.03C43.0615 48.0131 43.8585 48.81 44.8415 48.81Z" fill="#545F7D" fill-opacity="0.2"/>
</svg>
