<svg width="118" height="104" viewBox="0 0 118 104" fill="none" xmlns="http://www.w3.org/2000/svg">
<path d="M79.4512 34.93C71.0812 34.93 62.5612 34.59 54.5912 32.37C46.7712 30.2 39.5912 25.99 33.1912 21.12C29.0012 17.95 25.1912 15.42 19.7512 15.8C14.4293 16.088 9.34 18.0753 5.23121 21.47C-1.68879 27.53 -0.648793 38.76 2.12121 46.62C6.28121 58.49 18.9412 66.76 29.7012 72.11C42.1312 78.32 55.7912 81.93 69.4812 84C81.4812 85.83 96.9012 87.15 107.301 79.32C116.851 72.11 119.471 55.67 117.131 44.57C116.563 41.2909 114.817 38.3321 112.221 36.25C105.511 31.34 95.5012 34.62 87.9612 34.78C85.1612 34.84 82.3112 34.91 79.4512 34.93Z" fill="#213F7D" fill-opacity="0.06"/>
<path d="M62.0214 85.24C68.2567 85.24 73.3114 80.1853 73.3114 73.95C73.3114 67.7147 68.2567 62.66 62.0214 62.66C55.7862 62.66 50.7314 67.7147 50.7314 73.95C50.7314 80.1853 55.7862 85.24 62.0214 85.24Z" fill="#545F7D" fill-opacity="0.2"/>
<path d="M50.3548 3.46615C50.979 3.32697 51.6246 3.31209 52.2545 3.42238C52.8845 3.53266 53.4865 3.76595 54.0263 4.10891C54.5661 4.45188 55.0331 4.8978 55.4006 5.42123C55.768 5.94466 56.0288 6.53535 56.168 7.15955L57.9721 15.2509L48.4461 17.3749L46.6419 9.28365C46.5024 8.65779 46.4878 8.01054 46.599 7.37903C46.7102 6.74753 46.945 6.14421 47.29 5.60369C47.635 5.06317 48.0833 4.5961 48.6093 4.22929C49.1352 3.86247 49.7284 3.60313 50.3548 3.46615Z" fill="white" stroke="#BABABA" stroke-linecap="round" stroke-linejoin="round"/>
<path d="M94.8614 66.94L36.9714 79.84C36.6118 79.9207 36.2374 79.9062 35.8851 79.7981C35.5328 79.69 35.2148 79.4919 34.9624 79.2233C34.71 78.9548 34.532 78.6251 34.4459 78.2668C34.3598 77.9085 34.3686 77.5339 34.4714 77.18L34.7114 76.35C36.7114 69.26 38.4514 61.45 36.8514 54.25L33.4314 38.89C30.5514 25.98 38.2914 12.83 51.1314 9.66C54.2624 8.88273 57.5172 8.73959 60.7043 9.239C63.8915 9.73841 66.9465 10.8703 69.6897 12.568C72.4329 14.2657 74.8088 16.495 76.6775 19.1246C78.5463 21.7542 79.8702 24.7311 80.5714 27.88L84.1014 43.76C85.7114 50.96 90.5714 57.32 95.4314 62.86L96.0014 63.51C96.2321 63.7884 96.3883 64.1209 96.455 64.4762C96.5218 64.8316 96.4969 65.1981 96.3829 65.5412C96.2689 65.8844 96.0693 66.1928 95.8032 66.4375C95.537 66.6822 95.2129 66.8552 94.8614 66.94Z" fill="white" stroke="#545F7D" stroke-opacity="0.2" stroke-linecap="round" stroke-linejoin="round"/>
<path d="M52.0412 57.04C52.0254 54.7043 52.8102 52.4337 54.2648 50.6062C55.7194 48.7787 57.7562 47.5046 60.0359 46.996C62.3156 46.4875 64.7007 46.7752 66.7941 47.8112C68.8875 48.8472 70.5629 50.5691 71.5413 52.69" stroke="#545F7D" stroke-opacity="0.2" stroke-linecap="round" stroke-linejoin="round"/>
<path d="M69.9014 40.81C70.6857 40.81 71.3214 40.1743 71.3214 39.39C71.3214 38.6058 70.6857 37.97 69.9014 37.97C69.1172 37.97 68.4814 38.6058 68.4814 39.39C68.4814 40.1743 69.1172 40.81 69.9014 40.81Z" fill="#545F7D" fill-opacity="0.2"/>
<path d="M47.8809 45.72C48.6652 45.72 49.3009 45.0842 49.3009 44.3C49.3009 43.5158 48.6652 42.88 47.8809 42.88C47.0967 42.88 46.4609 43.5158 46.4609 44.3C46.4609 45.0842 47.0967 45.72 47.8809 45.72Z" fill="#545F7D" fill-opacity="0.2"/>
<path d="M74.3614 1.96C74.9026 1.96 75.3414 1.52124 75.3414 0.98C75.3414 0.43876 74.9026 0 74.3614 0C73.8201 0 73.3813 0.43876 73.3813 0.98C73.3813 1.52124 73.8201 1.96 74.3614 1.96Z" fill="#CFCFCF"/>
<path d="M15.9009 75.89C16.4421 75.89 16.8809 75.4512 16.8809 74.91C16.8809 74.3688 16.4421 73.93 15.9009 73.93C15.3597 73.93 14.9209 74.3688 14.9209 74.91C14.9209 75.4512 15.3597 75.89 15.9009 75.89Z" fill="#CFCFCF"/>
<path d="M101.441 24.65V28.95" stroke="#545F7D" stroke-opacity="0.2" stroke-linecap="round" stroke-linejoin="round"/>
<path d="M99.291 26.8H103.591" stroke="#545F7D" stroke-opacity="0.2" stroke-linecap="round" stroke-linejoin="round"/>
<path d="M103.401 89.39V93.69" stroke="#545F7D" stroke-opacity="0.2" stroke-linecap="round" stroke-linejoin="round"/>
<path d="M101.251 91.54H105.551" stroke="#545F7D" stroke-opacity="0.2" stroke-linecap="round" stroke-linejoin="round"/>
<path d="M28.2212 8.35004V12.65" stroke="#545F7D" stroke-opacity="0.2" stroke-linecap="round" stroke-linejoin="round"/>
<path d="M26.0713 10.5H30.3713" stroke="#545F7D" stroke-opacity="0.2" stroke-linecap="round" stroke-linejoin="round"/>
<path d="M59.3711 103.46C79.6455 103.46 96.0811 102.435 96.0811 101.17C96.0811 99.9053 79.6455 98.88 59.3711 98.88C39.0968 98.88 22.6611 99.9053 22.6611 101.17C22.6611 102.435 39.0968 103.46 59.3711 103.46Z" fill="#213F7D" fill-opacity="0.06"/>
<path d="M94.441 22.21C94.4383 25.2512 93.229 28.1671 91.0785 30.3176C88.9281 32.4681 86.0122 33.6774 82.971 33.68C82.5968 33.68 82.223 33.6599 81.851 33.62L78.451 39.17L77.391 32.22C75.6245 31.2364 74.1494 29.8033 73.1152 28.066C72.0809 26.3287 71.5243 24.3489 71.5017 22.3271C71.4791 20.3054 71.9913 18.3136 72.9864 16.5536C73.9815 14.7936 75.4241 13.3279 77.1681 12.305C78.9122 11.2821 80.8956 10.7384 82.9174 10.7289C84.9392 10.7195 86.9276 11.2447 88.6811 12.2512C90.4346 13.2578 91.8909 14.7099 92.9024 16.4606C93.9139 18.2112 94.4447 20.1982 94.441 22.22V22.21Z" fill="white" stroke="#545F7D" stroke-opacity="0.2" stroke-linecap="round" stroke-linejoin="round"/>
<path d="M78.0711 23.37C78.7118 23.37 79.2311 22.8506 79.2311 22.21C79.2311 21.5693 78.7118 21.05 78.0711 21.05C77.4305 21.05 76.9111 21.5693 76.9111 22.21C76.9111 22.8506 77.4305 23.37 78.0711 23.37Z" fill="#545F7D" fill-opacity="0.2" stroke="#545F7D" stroke-opacity="0.2" stroke-miterlimit="10"/>
<path d="M82.9715 23.37C83.6122 23.37 84.1315 22.8506 84.1315 22.21C84.1315 21.5693 83.6122 21.05 82.9715 21.05C82.3309 21.05 81.8115 21.5693 81.8115 22.21C81.8115 22.8506 82.3309 23.37 82.9715 23.37Z" fill="#545F7D" fill-opacity="0.2" stroke="#545F7D" stroke-opacity="0.2" stroke-miterlimit="10"/>
<path d="M87.8709 23.37C88.5116 23.37 89.0309 22.8506 89.0309 22.21C89.0309 21.5693 88.5116 21.05 87.8709 21.05C87.2303 21.05 86.7109 21.5693 86.7109 22.21C86.7109 22.8506 87.2303 23.37 87.8709 23.37Z" fill="#545F7D" fill-opacity="0.2" stroke="#545F7D" stroke-opacity="0.2" stroke-miterlimit="10"/>
</svg>
