<svg width="21" height="21" viewBox="0 0 21 21" fill="none" xmlns="http://www.w3.org/2000/svg">
<path fill-rule="evenodd" clip-rule="evenodd" d="M0 0.833465C0 0.373155 0.369365 0 0.825 0H3.3C3.75563 0 4.125 0.373155 4.125 0.833465V15.8358C4.125 16.2961 4.49437 16.6693 4.95 16.6693H15.675C16.1306 16.6693 16.5 16.2961 16.5 15.8358V13.3354C16.5 12.8751 16.1306 12.502 15.675 12.502H10.725C9.3581 12.502 8.25 11.3825 8.25 10.0016V2.50039C8.25 1.11946 9.3581 0 10.725 0H18.15C19.5169 0 20.625 1.11946 20.625 2.50039V18.3362C20.625 19.7172 19.5169 20.8366 18.15 20.8366H2.475C1.1081 20.8366 0 19.7172 0 18.3362V0.833465ZM16.5 5.00079C16.5 4.54048 16.1306 4.16732 15.675 4.16732H12.375V7.50118C12.375 7.96149 12.7444 8.33465 13.2 8.33465H16.5V5.00079Z" fill="url(#paint0_linear_174263_644)"/>
<defs>
<linearGradient id="paint0_linear_174263_644" x1="-1.55986e-06" y1="31.0466" x2="21.8776" y2="-4.90756" gradientUnits="userSpaceOnUse">
<stop stop-color="#213F7D"/>
<stop offset="1" stop-color="#39CDCC"/>
</linearGradient>
</defs>
</svg>
